<mxfile host="app.diagrams.net" modified="2022-03-02T01:47:29.267Z" agent="5.0 (Macintosh; Intel Mac OS X 10_14_6) AppleWebKit/537.36 (KHTML, like Gecko) Chrome/98.0.4758.80 Safari/537.36" etag="j44rODmRbB6LcRDRSCZB" version="16.6.4" type="github">
  <diagram id="_1l478EHCFWLf8KrXz63" name="Page-1">
    <mxGraphModel dx="946" dy="614" grid="1" gridSize="10" guides="1" tooltips="1" connect="1" arrows="1" fold="1" page="1" pageScale="1" pageWidth="827" pageHeight="1169" math="0" shadow="0">
      <root>
        <mxCell id="0" />
        <mxCell id="1" parent="0" />
        <mxCell id="NFKryQmDKCjB0EHbck2O-1" value="who are you?" style="whiteSpace=wrap;html=1;shape=mxgraph.basic.document" vertex="1" parent="1">
          <mxGeometry x="300" y="110" width="100" height="100" as="geometry" />
        </mxCell>
        <mxCell id="NFKryQmDKCjB0EHbck2O-2" value="little frog" style="whiteSpace=wrap;html=1;shape=mxgraph.basic.loud_callout" vertex="1" parent="1">
          <mxGeometry x="470" y="130" width="100" height="60" as="geometry" />
        </mxCell>
      </root>
    </mxGraphModel>
  </diagram>
</mxfile>
